SplineFontDB: 3.0
FontName: Metro
FullName: Metro
FamilyName: Metro
Weight: Regular
Copyright: Created by Khaled Hosny with FontForge 2.0 (http://fontforge.sf.net)
UComments: "2011-7-30: Created." 
Version: 000.100
ItalicAngle: 0
UnderlinePosition: -200
UnderlineWidth: 100
Ascent: 800
Descent: 200
LayerCount: 2
Layer: 0 0 "Back"  1
Layer: 1 0 "Fore"  0
NeedsXUIDChange: 1
XUID: [1021 398 194582295 711436]
FSType: 0
OS2Version: 0
OS2_WeightWidthSlopeOnly: 0
OS2_UseTypoMetrics: 1
CreationTime: 1312056181
ModificationTime: 1312090564
PfmFamily: 17
TTFWeight: 400
TTFWidth: 5
LineGap: 180
VLineGap: 0
OS2TypoAscent: 0
OS2TypoAOffset: 1
OS2TypoDescent: 0
OS2TypoDOffset: 1
OS2TypoLinegap: 180
OS2WinAscent: 0
OS2WinAOffset: 1
OS2WinDescent: 0
OS2WinDOffset: 1
HheadAscent: 0
HheadAOffset: 1
HheadDescent: 0
HheadDOffset: 1
OS2Vendor: 'PfEd'
Lookup: 1 8 0 "'init' Initial Forms in Arabic lookup 0"  {"'init' Initial Forms in Arabic lookup 0-1"  } ['init' ('DFLT' <'dflt' > 'arab' <'dflt' > ) ]
Lookup: 1 8 0 "'medi' Medial Forms in Arabic lookup 1"  {"'medi' Medial Forms in Arabic lookup 1-1"  } ['medi' ('DFLT' <'dflt' > 'arab' <'dflt' > ) ]
Lookup: 1 8 0 "'fina' Terminal Forms in Arabic lookup 2"  {"'fina' Terminal Forms in Arabic lookup 2-1"  } ['fina' ('DFLT' <'dflt' > 'arab' <'dflt' > ) ]
Lookup: 4 8 1 "'rlig' Required Ligatures in Arabic lookup 3"  {"'rlig' Required Ligatures in Arabic lookup 3-1"  } ['rlig' ('DFLT' <'dflt' > 'arab' <'dflt' > ) ]
MarkAttachClasses: 1
DEI: 91125
LangName: 1033 
Encoding: UnicodeBmp
Compacted: 1
UnicodeInterp: none
NameList: AGL without afii
DisplaySize: -96
AntiAlias: 1
FitToEm: 1
WinInfo: 36 12 6
BeginPrivate: 0
EndPrivate
BeginChars: 65536 134

StartChar: uni0661
Encoding: 1633 1633 0
Width: 520
VWidth: 0
Flags: W
VStem: 215 90<-82 478>
LayerCount: 2
Fore
SplineSet
215 478 m 1
 305 478 l 1
 305 -82 l 1
 215 -82 l 1
 215 478 l 1
EndSplineSet
EndChar

StartChar: uni0662
Encoding: 1634 1634 1
Width: 520
VWidth: 0
Flags: W
HStem: 386 90<231.5 377.5>
VStem: 141.5 90<-82 386>
LayerCount: 2
Fore
SplineSet
377.5 477 m 1
 378.5 387 l 1
 231.5 386 l 2
 231.5 -82 l 1
 141.5 -82 l 1
 141.5 386 l 2
 141.5 434 182.5 476 229.5 476 c 2
 377.5 477 l 1
EndSplineSet
EndChar

StartChar: uni0663
Encoding: 1635 1635 2
Width: 520
VWidth: 0
Flags: W
HStem: 233 90<146 216 306 371>
VStem: 59 90<-83 233 323 477> 146 3<233 323> 301 5<274 323> 371 90<323 477>
LayerCount: 2
Fore
SplineSet
371 477 m 1x98
 461 477 l 1
 461 322 l 2
 461 274 419 233 371 233 c 2
 301 233 l 1
 301 323 l 1
 371 323 l 2
 371 477 l 1x98
216 477 m 1
 306 477 l 1
 306 322 l 2
 306 274 263 233 215 233 c 2
 146 233 l 1
 146 323 l 1xb8
 215 323 l 2
 216 323 l 2
 216 477 l 1
59 477 m 1xd8
 149 477 l 1
 149 -83 l 1
 59 -83 l 1
 59 477 l 1xd8
EndSplineSet
EndChar

StartChar: uni0664
Encoding: 1636 1636 3
Width: 520
VWidth: -2256
Flags: W
HStem: -84 90<209.981 421.981>
VStem: 98.9814 323
LayerCount: 2
Back
SplineSet
281.166 469.25 m 1
 334.666 396.876 l 1
 208.542 303.624 l 1
 302.478 239 l 2
 313.232 231.596 321.962 214.988 321.962 201.932 c 0
 321.962 194.146 318.358 182.643 313.916 176.25 c 2
 199.979 12.3125 l 2
 199.877 12.1562 199.709 11.9043 199.604 11.75 c 0
 198.564 10.3047 197.764 8.51758 196.791 6.875 c 2
 401.792 6.375 l 1
 401.604 -83.625 l 1
 155.666 -83.0625 l 2
 148.416 -83.0449 137.58 -79.8516 131.479 -75.9375 c 0
 116.904 -66.5898 105.9 -51.0156 101.479 -36.0625 c 0
 97.0527 -21.1094 97.7324 -7.42188 99.916 4.5625 c 0
 104.232 28.2891 114.451 47.3398 126.104 63.6875 c 2
 126.479 64.1875 l 1
 214.228 190.5 l 1
 142.791 239.688 l 2
 140.525 241.236 137.162 244.12 135.291 246.124 c 0
 128.623 253.308 122.51 259.92 116.541 269.188 c 0
 110.568 278.456 103.971 292.754 105.166 309.876 c 0
 106.357 326.996 115.193 340.832 123.166 349.624 c 0
 130.986 358.254 138.986 364.336 148.166 370.938 c 2
 148.354 371.062 l 2
 148.467 371.142 148.553 371.232 148.666 371.312 c 2
 281.166 469.25 l 1
EndSplineSet
Fore
SplineSet
292.981 475 m 1
 345.981 403 l 1
 200.981 296 l 2
 201.981 295 203.981 294 204.981 292 c 2
 315.981 191 l 2
 323.981 184 329.981 168 329.981 157 c 0
 329.981 148 324.981 134 318.981 127 c 2
 209.981 6 l 1
 421.981 6 l 1
 421.981 -84 l 1
 155.981 -84 l 2
 148.981 -84 137.981 -81 131.981 -77 c 0
 108.981 -62 93.9814 -27 98.9814 -2 c 0
 103.981 23 116.981 37 129.981 51 c 2
 129.981 52 l 1
 221.981 154 l 1
 141.981 227 l 2
 140.981 228 140.981 229 139.981 230 c 0
 125.981 245 109.981 260 105.981 290 c 0
 103.981 305 106.981 323 114.981 336 c 0
 122.981 349 133.981 358 144.981 366 c 1
 144.981 367 l 2
 292.981 475 l 1
EndSplineSet
EndChar

StartChar: uni0665
Encoding: 1637 1637 4
Width: 520
VWidth: 0
Flags: W
HStem: -94 84<186.9 333.094> 369 83<219.854 286.012>
LayerCount: 2
Fore
SplineSet
257.479 452 m 0
 282.479 453 308.479 446 330.479 432 c 0
 370.479 407 396.479 366 418.479 316 c 0
 440.479 266 455.479 208 458.479 150 c 0
 461.479 92 453.479 34 422.479 -14 c 0
 391.479 -62 333.479 -94 261.479 -94 c 0
 189.479 -94 131.479 -63 99.4785 -16 c 0
 67.4785 31 58.4785 90 61.4785 147 c 0
 64.4785 204 78.4785 261 99.4785 311 c 0
 120.479 361 146.479 404 184.479 429 c 0
 206.479 444 232.479 451 257.479 452 c 0
259.479 369 m 0
 250.479 369 241.479 365 231.479 358 c 0
 218.479 349 193.479 318 176.479 278 c 0
 159.479 238 147.479 189 145.479 143 c 0
 143.479 97 152.479 56 169.479 31 c 0
 186.479 6 209.479 -10 260.479 -10 c 0
 311.479 -10 334.479 7 351.479 33 c 0
 368.479 59 376.479 100 374.479 146 c 0
 372.479 192 359.479 242 341.479 282 c 0
 323.479 322 299.479 352 286.479 360 c 0
 276.479 366 268.479 369 259.479 369 c 0
EndSplineSet
EndChar

StartChar: uni0666
Encoding: 1638 1638 5
Width: 520
VWidth: 0
Flags: W
HStem: 387 90<102 329>
VStem: 329 90<-82 386>
LayerCount: 2
Fore
SplineSet
102 477 m 1
 330 476 l 2
 378 476 419 434 419 386 c 2
 419 -82 l 1
 329 -82 l 1
 329 386 l 2
 101 387 l 1
 102 477 l 1
EndSplineSet
EndChar

StartChar: uni0667
Encoding: 1639 1639 6
Width: 520
VWidth: 0
Flags: W
LayerCount: 2
Fore
SplineSet
137.5 482 m 1
 271.5 63 l 1
 381.5 479 l 1
 468.5 456 l 1
 338.5 -37 l 2
 338.5 -39 337.5 -41 336.5 -42 c 0
 324.5 -71 297.5 -82 275.5 -82 c 0
 253.5 -82 227.5 -73 213.5 -47 c 0
 212.5 -45 211.5 -41 210.5 -39 c 2
 51.5 454 l 1
 137.5 482 l 1
EndSplineSet
EndChar

StartChar: uni0668
Encoding: 1640 1640 7
Width: 520
VWidth: 0
Flags: W
LayerCount: 2
Fore
SplineSet
244.5 480 m 0
 266.5 480 292.5 472 306.5 446 c 0
 307.5 444 308.5 440 309.5 438 c 2
 468.5 -56 l 1
 382.5 -83 l 1
 247.5 335 l 1
 138.5 -81 l 1
 51.5 -58 l 1
 181.5 435 l 2
 181.5 437 182.5 440 183.5 441 c 0
 195.5 470 222.5 480 244.5 480 c 0
EndSplineSet
EndChar

StartChar: uni0669
Encoding: 1641 1641 8
Width: 520
VWidth: 0
Flags: W
HStem: 157 90<203.99 334.131> 387 91<207.227 316.125>
VStem: 334.131 90<-82 157 247 369.525>
LayerCount: 2
Fore
SplineSet
258.131 478 m 4
 277.131 478 297.131 476 316.131 470 c 4
 367.131 454 414.131 406 424.131 335 c 4
 424.131 333 424.131 331 424.131 329 c 4
 424.131 328 l 6
 424.131 -82 l 5
 334.131 -82 l 5
 334.131 157 l 5
 300.131 159 268.131 155 233.131 159 c 4
 195.131 163 152.131 184 123.131 226 c 4
 123.131 227 121.131 227 121.131 228 c 4
 69.1309 313 103.131 410 171.131 450 c 4
 172.131 451 173.131 451 174.131 452 c 4
 176.131 453 l 4
 200.131 469 228.131 477 258.131 478 c 4
270.131 387 m 4
 251.131 388 232.131 383 222.131 376 c 4
 221.131 375 219.131 375 218.131 374 c 4
 197.131 363 171.131 319 197.131 276 c 5
 213.131 253 221.131 251 243.131 249 c 4
 263.131 247 294.131 249 334.131 247 c 5
 334.131 324 l 5
 327.131 364 310.131 377 288.131 384 c 4
 282.131 386 276.131 387 270.131 387 c 4
EndSplineSet
EndChar

StartChar: uni0627
Encoding: 1575 1575 9
Width: 191
VWidth: 0
Flags: W
HStem: 0 21G<50 74> 89 1<50 140>
VStem: 50 90<59.7382 560>
LayerCount: 2
Fore
SplineSet
51 560 m 1
 141 560 l 1
 140 89 l 1
 50 89 l 1
 51 560 l 1
50 0 m 1
 50 90 l 1
 140 90 l 1
 140 42 98 0 50 0 c 1
EndSplineSet
Substitution2: "'fina' Terminal Forms in Arabic lookup 2-1" uniFE8E
EndChar

StartChar: uni0633
Encoding: 1587 1587 10
Width: 817
VWidth: 0
Flags: W
HStem: -169 90<142 365> 0 90<451 521 611 677>
VStem: 52 90<-78.9715 159> 451 4<0 90> 607 4<41 90> 677 90<90 320>
LayerCount: 2
Fore
SplineSet
677 320 m 1
 767 320 l 1
 767 89 l 2
 767 41 725 0 677 0 c 2
 607 0 l 1
 607 90 l 1
 677 90 l 2
 677 320 l 1
521 320 m 1
 611 320 l 1
 611 89 l 2
 611 41 569 0 521 0 c 2
 451 0 l 1
 451 90 l 1
 521 90 l 2
 521 320 l 1
365 322 m 1
 455 322 l 1
 455 -82 l 2
 455 -130 413 -170 365 -170 c 2
 139 -169 l 2
 138 -169 l 0
 112 -169 86 -158 70 -138 c 0
 56 -120 51 -98 52 -77 c 1
 50 159 l 1
 140 160 l 1
 142 -76 l 2
 142 -77 142 -78 142 -79 c 2
 365 -80 l 1
 365 322 l 1
EndSplineSet
Substitution2: "'fina' Terminal Forms in Arabic lookup 2-1" uniFEB2
Substitution2: "'medi' Medial Forms in Arabic lookup 1-1" uniFEB4
Substitution2: "'init' Initial Forms in Arabic lookup 0-1" uniFEB3
EndChar

StartChar: uni0634
Encoding: 1588 1588 11
Width: 817
VWidth: 0
Flags: W
HStem: -169 90<142 365> 0 90<451 521 611 677> 390 90<448.481 527.519 612.481 690.519> 470 90<529.481 607.519>
VStem: 52 90<-78.9715 159> 442 92<396.481 473.519> 451 4<0 90> 523 91<476.481 553.519> 606 91<396.481 473.519> 607 4<41 90> 677 90<90 320>
LayerCount: 2
Fore
SplineSet
651 480 m 4xe880
 652 480 l 4
 677 480 697 460 697 435 c 4
 697 410 677 390 652 390 c 4
 651 390 l 4
 626 390 606 410 606 435 c 4
 606 460 626 480 651 480 c 4xe880
488 480 m 4
 489 480 l 4
 514 480 534 460 534 435 c 4
 534 410 514 390 489 390 c 4
 488 390 l 4
 487 390 l 4
 462 390 442 410 442 435 c 4xec
 442 460 462 480 487 480 c 4
 488 480 l 4
569 560 m 4xd9
 594 560 614 540 614 515 c 4
 614 490 594 470 569 470 c 4
 568 470 l 4
 543 470 523 490 523 515 c 4
 523 540 543 560 568 560 c 4
 569 560 l 4xd9
EndSplineSet
Refer: 10 1587 S 1 0 0 1 0 0 2
Substitution2: "'fina' Terminal Forms in Arabic lookup 2-1" uniFEB6
Substitution2: "'medi' Medial Forms in Arabic lookup 1-1" uniFEB8
Substitution2: "'init' Initial Forms in Arabic lookup 0-1" uniFEB7
EndChar

StartChar: uni0635
Encoding: 1589 1589 12
Width: 893
VWidth: 0
Flags: W
HStem: -162 90<143 366> 0 90<411 425 537 752> 233 90<644.483 736.28>
VStem: 53 90<-69.9715 168> 411 45<0 90> 750 90<90 220.58>
LayerCount: 2
Fore
SplineSet
693 323 m 0
 710 323 729 320 746 314 c 0
 748 313 l 0
 777 301 803 278 818 249 c 0
 833 220 839 187 840 148 c 1
 843 91 l 2
 845 41 800 0 752 0 c 2
 411 0 l 1
 411 90 l 1
 425 90 l 1
 468 149 511 212 560 258 c 0
 585 282 612 301 643 313 c 0
 659 319 676 323 693 323 c 0
695 233 m 0
 689 233 682 232 675 229 c 0
 660 223 642 211 622 192 c 0
 595 167 567 130 537 90 c 1
 752 90 l 1
 750 144 l 2
 750 145 l 0
 749 175 744 196 738 208 c 0
 732 220 726 225 714 230 c 0
 707 233 701 233 695 233 c 0
366 236 m 1
 456 236 l 1
 456 -73 l 2
 456 -121 414 -162 366 -162 c 2
 139 -160 l 2
 113 -160 87 -149 71 -129 c 0
 57 -111 52 -89 53 -68 c 1
 50 168 l 1
 140 169 l 1
 143 -67 l 2
 143 -68 143 -69 143 -70 c 2
 366 -72 l 1
 366 236 l 1
EndSplineSet
Substitution2: "'fina' Terminal Forms in Arabic lookup 2-1" uniFEBA
Substitution2: "'medi' Medial Forms in Arabic lookup 1-1" uniFEBC
Substitution2: "'init' Initial Forms in Arabic lookup 0-1" uniFEBB
EndChar

StartChar: uni0636
Encoding: 1590 1590 13
Width: 893
VWidth: 0
Flags: W
HStem: -162 90<143 366> 0 90<411 425 537 752> 233 90<644.483 736.28> 309 90<449.481 527.519>
VStem: 53 90<-69.9715 168> 411 45<0 90> 443 91<315.481 392.519> 750 90<90 220.58>
LayerCount: 2
Fore
SplineSet
489 399 m 0xdb
 514 399 534 379 534 354 c 0
 534 329 514 309 489 309 c 0
 488 309 l 0
 463 309 443 329 443 354 c 0
 443 379 463 399 488 399 c 0
 489 399 l 0xdb
EndSplineSet
Refer: 12 1589 S 1 0 0 1 0 0 2
Substitution2: "'fina' Terminal Forms in Arabic lookup 2-1" uniFEBE
Substitution2: "'medi' Medial Forms in Arabic lookup 1-1" uniFEC0
Substitution2: "'init' Initial Forms in Arabic lookup 0-1" uniFEBF
EndChar

StartChar: uni062C
Encoding: 1580 1580 14
Width: 499
VWidth: 0
Flags: W
HStem: -247 90<141.081 371> -125 90<213.481 292.519> 0 90<146.756 286>
VStem: 50 90<-156.697 -6.04166> 207 92<-118.519 -41.4806>
LayerCount: 2
Fore
SplineSet
253 -35 m 2
 254 -35 l 0
 279 -35 299 -55 299 -80 c 0
 299 -105 279 -125 254 -125 c 0
 253 -125 l 2
 252 -125 l 0
 227 -125 207 -105 207 -80 c 0
 207 -55 227 -35 252 -35 c 0
 253 -35 l 2
EndSplineSet
Refer: 15 1581 S 1 0 0 1 0 0 2
Substitution2: "'medi' Medial Forms in Arabic lookup 1-1" uniFEA0
Substitution2: "'init' Initial Forms in Arabic lookup 0-1" uniFE9F
EndChar

StartChar: uni062D
Encoding: 1581 1581 15
Width: 499
VWidth: 0
Flags: W
HStem: -247 90<141.081 371> 0 90<146.756 286>
VStem: 50 90<-156.697 -6.04166>
LayerCount: 2
Fore
SplineSet
165 306 m 1
 272 265 320 186 347 157 c 0
 371 131 393 116 405 116 c 2
 447 116 l 1
 449 74 l 2
 449 70 450 67 449 61 c 0
 449 58 448 52 445 46 c 0
 441 33 435 28 431 24 c 0
 427 19 423 16 419 13 c 0
 415 10 410 7 405 5 c 0
 400 3 395 0 382 0 c 1
 173 0 l 2
 159 0 140 -24 140 -36 c 2
 140 -134 l 1
 140 -149 146 -157 166 -157 c 2
 167 -157 l 1
 371 -157 l 1
 371 -247 l 1
 168 -247 l 2
 167 -247 l 0
 104 -248 50 -196 50 -134 c 0
 50 -36 l 2
 50 29 100 90 173 90 c 2
 286 90 l 1
 284 92 282 94 280 96 c 0
 241 139 214 190 133 221 c 1
 165 306 l 1
445 48 m 1
 445 47 445 47 445 46 c 1
 445 47 445 47 445 48 c 1
440 38 m 1
 440 37 l 0
 439 36 439 35 438 34 c 1
 439 35 439 37 440 38 c 1
EndSplineSet
Substitution2: "'medi' Medial Forms in Arabic lookup 1-1" uniFEA4
Substitution2: "'init' Initial Forms in Arabic lookup 0-1" uniFEA3
EndChar

StartChar: uni062E
Encoding: 1582 1582 16
Width: 499
VWidth: 0
Flags: W
HStem: -247 90<141.081 371> 0 90<146.756 286> 237 90<282.481 360.519>
VStem: 50 90<-156.697 -6.04166> 276 91<243.481 320.519>
LayerCount: 2
Fore
SplineSet
321 327 m 0
 322 327 l 0
 347 327 367 307 367 282 c 0
 367 257 347 237 322 237 c 0
 321 237 l 0
 296 237 276 257 276 282 c 0
 276 307 296 327 321 327 c 0
EndSplineSet
Refer: 15 1581 S 1 0 0 1 0 0 2
Substitution2: "'medi' Medial Forms in Arabic lookup 1-1" uniFEA8
Substitution2: "'init' Initial Forms in Arabic lookup 0-1" uniFEA7
EndChar

StartChar: uni0639
Encoding: 1593 1593 17
Width: 427
VWidth: 0
Flags: W
HStem: -232 90<140 376> 0 90<266 376>
VStem: 50 90<-142 0>
LayerCount: 2
Fore
SplineSet
377 90 m 1
 376 0 l 1
 351 0 292 0 239 0 c 0
 213 0 187 0 168 0 c 0
 153 0 147 0 140 0 c 1
 140 -142 l 1
 376 -142 l 1
 376 -232 l 1
 132 -232 l 1
 131 -232 l 1
 104 -232 79 -216 67 -199 c 0
 55 -182 50 -165 50 -147 c 2
 50 4 l 1
 50 6 l 2
 51 24 56 43 70 61 c 0
 84 79 109 90 133 90 c 2
 134 90 l 1
 132 90 149 90 168 90 c 0
 187 90 212 90 239 90 c 0
 292 90 350 90 377 90 c 1
233 285 m 0
 258 287 285 283 314 275 c 0
 329 271 345 265 361 258 c 1
 325 175 l 1
 312 180 301 185 290 188 c 0
 262 196 240 197 227 194 c 0
 214 191 211 188 210 185 c 0
 209 182 206 173 213 154 c 0
 220 135 237 108 266 76 c 1
 200 15 l 1
 165 53 142 88 129 123 c 0
 116 158 114 193 129 224 c 0
 144 255 176 275 208 282 c 0
 216 284 225 284 233 285 c 0
EndSplineSet
Substitution2: "'fina' Terminal Forms in Arabic lookup 2-1" uniFECA
Substitution2: "'init' Initial Forms in Arabic lookup 0-1" uniFECB
EndChar

StartChar: uni063A
Encoding: 1594 1594 18
Width: 427
VWidth: 0
Flags: W
HStem: -232 90<140 376> 0 90<266 376> 315 90<137.481 215.519>
VStem: 50 90<-142 0> 131 91<321.481 398.519>
LayerCount: 2
Fore
SplineSet
177 405 m 4xe8
 202 405 222 385 222 360 c 4
 222 335 202 315 177 315 c 4
 176 315 l 4
 151 315 131 335 131 360 c 4
 131 385 151 405 176 405 c 4
 177 405 l 4xe8
EndSplineSet
Refer: 17 1593 S 1 0 0 1 0 0 2
Substitution2: "'fina' Terminal Forms in Arabic lookup 2-1" uniFECE
EndChar

StartChar: uniFEBB
Encoding: 65211 65211 19
Width: 600
VWidth: 0
Flags: W
HStem: 0 90<0 73 133 147.084 244 460> 84 6<73 133> 233 90<351.607 444.28>
VStem: 73 90<84 236> 458 90<90 220.58>
LayerCount: 2
Fore
SplineSet
401 323 m 0xb8
 418 323 437 320 454 314 c 0
 455 313 l 0
 484 301 510 278 525 249 c 0
 540 220 547 187 548 148 c 1
 550 91 l 2
 552 41 508 0 460 0 c 2
 0 0 l 1
 0 90 l 1
 133 90 l 1
 176 149 218 212 267 258 c 0
 292 282 320 301 351 313 c 0
 367 319 384 323 401 323 c 0xb8
402 233 m 0
 396 233 389 232 382 229 c 0
 367 223 349 211 329 192 c 0
 302 167 274 130 244 90 c 1
 460 90 l 2
 458 144 l 2
 458 145 l 0
 457 175 452 196 446 208 c 0
 440 220 434 225 422 230 c 0
 415 233 408 233 402 233 c 0
73 236 m 1
 163 236 l 1
 163 84 l 1
 73 84 l 1x78
 73 236 l 1
EndSplineSet
EndChar

StartChar: uniFEBF
Encoding: 65215 65215 20
Width: 600
VWidth: 0
Flags: W
HStem: 0 90<0 73 133 147.084 244 460> 84 6<73 133> 233 90<351.607 444.28> 310 92<157.347 234.653>
VStem: 73 90<84 236> 150 92<317.347 394.653> 458 90<90 220.58>
LayerCount: 2
Fore
SplineSet
196 402 m 4x16
 221 402 242 381 242 356 c 4
 242 331 221 310 196 310 c 4
 171 310 150 331 150 356 c 4
 150 381 171 402 196 402 c 4x16
EndSplineSet
Refer: 19 65211 S 1 0 0 1 0 0 2
EndChar

StartChar: uniFEDB
Encoding: 65243 65243 21
Width: 578
VWidth: 84
Flags: W
HStem: 0 90<50 434> 482 90<417.117 521>
LayerCount: 2
Fore
SplineSet
513 572 m 0
 518 572 523 572 528 572 c 1
 521 482 l 1
 523 482 505 480 484 476 c 0
 463 472 437 466 409 458 c 0
 355 442 295 420 260 399 c 1
 261 396 263 393 265 391 c 2
 266 390 l 1
 267 389 l 1
 504 147 l 1
 516 135 522 123 525 111 c 0
 529 98 530 83 527 67 c 0
 524 51 516 33 501 20 c 0
 486 7 464 0 443 0 c 2
 50 0 l 1
 50 90 l 1
 434 90 l 1
 203 326 l 1
 179 349 168 377 168 405 c 0
 168 419 171 434 180 449 c 0
 187 460 200 472 215 477 c 1
 263 505 326 527 384 544 c 0
 414 553 443 560 467 565 c 0
 485 569 499 571 513 572 c 0
EndSplineSet
EndChar

StartChar: uniFED6
Encoding: 65238 65238 22
Width: 767
VWidth: 0
Flags: W
HStem: -170 90<150.623 533.002> 0 90<399.981 533 623 767> 226 91<407.744 517.388> 389 90<295.481 373.519 456.053 532.947>
VStem: 52 90<-73.0656 155> 289 91<395.481 472.519> 449 91<394.481 471.519> 533 90<-80 0 90 208.525>
LayerCount: 2
Fore
SplineSet
458 317 m 0xfd
 477 317 496 315 515 309 c 0
 566 293 613 245 623 174 c 0
 623 172 624 169 624 167 c 2
 623 90 l 1
 767 90 l 1
 767 0 l 1
 623 0 l 1
 623 -79 l 2
 623 -126 584 -169 532 -170 c 0
 181 -170 l 2
 180 -170 180 -170 179 -170 c 0
 110 -167 51 -114 52 -45 c 1
 52 -43 l 1
 50 155 l 1
 140 156 l 1
 142 -44 l 2
 142 -45 l 0
 142 -46 l 0
 142 -54 161 -79 183 -80 c 2
 531 -80 l 2
 536 -80 533 -78 533 -79 c 1
 533 0 l 1
 498 0 468 -4 433 -1 c 0
 395 3 351 23 322 65 c 0
 322 66 321 66 321 67 c 0
 269 152 303 249 371 289 c 0
 372 290 374 291 375 292 c 0
 399 308 428 316 458 317 c 0xfd
470 226 m 0
 451 227 432 222 422 215 c 0
 421 214 419 214 418 213 c 0
 397 202 371 158 397 115 c 1
 413 92 420 90 441 88 c 0
 460 86 492 90 533 90 c 1
 534 163 l 1
 528 203 510 216 488 223 c 0
 482 225 476 226 470 226 c 0
334 479 m 0
 335 479 l 0
 360 479 380 459 380 434 c 0
 380 409 360 389 335 389 c 0
 334 389 l 0
 309 389 289 409 289 434 c 0
 289 459 309 479 334 479 c 0
494 478 m 0
 495 478 l 0
 520 478 540 458 540 433 c 0
 540 408 520 388 495 388 c 0
 494 388 l 0
 469 388 449 408 449 433 c 0xfe
 449 458 469 478 494 478 c 0
EndSplineSet
EndChar

StartChar: uniFE9F
Encoding: 65183 65183 23
Width: 527
VWidth: 0
Flags: W
HStem: -163 90<239.481 317.519> 0 90<0 312> 0 123<386.859 458.045> 245 87<99.2299 148.6>
VStem: 233 91<-156.519 -79.4806>
LayerCount: 2
Fore
SplineSet
279 -73 m 0x98
 304 -73 324 -93 324 -118 c 0
 324 -143 304 -163 279 -163 c 0
 278 -163 l 0
 253 -163 233 -143 233 -118 c 0
 233 -93 253 -73 278 -73 c 0
 279 -73 l 0x98
EndSplineSet
Refer: 24 65187 S 1 0 0 1 0 0 2
EndChar

StartChar: uniFEA3
Encoding: 65187 65187 24
Width: 527
VWidth: 0
Flags: W
HStem: 0 123<386.859 458.045> 0 90<0 312> 245 87<99.2299 148.6>
LayerCount: 2
Fore
SplineSet
101 332 m 1x60
 136 323 190 310 244 272 c 0
 295 236 335 189 368 160 c 0
 394 137 417 123 432 123 c 2
 475 123 l 1
 477 80 l 2
 477 72 477 63 475 56 c 0
 473 49 474 51 474 51 c 2
 474 50 l 1
 470 33 463 28 459 23 c 0
 455 18 450 16 446 13 c 0
 442 10 438 7 433 5 c 0
 428 3 422 0 409 0 c 1
 408 0 l 1xa0
 0 0 l 1
 0 90 l 1
 312 90 l 2
 311 91 309 92 308 93 c 0
 269 128 230 172 192 199 c 0
 153 227 115 236 79 245 c 1
 101 332 l 1x60
EndSplineSet
EndChar

StartChar: uniFEA7
Encoding: 65191 65191 25
Width: 527
VWidth: 0
Flags: W
HStem: 0 90<0 312> 0 123<386.859 458.045> 245 87<99.2299 148.6> 310 90<321.481 400.519>
VStem: 315 92<316.481 393.519>
LayerCount: 2
Fore
SplineSet
361 400 m 0x18
 362 400 l 0
 387 400 407 380 407 355 c 0
 407 330 387 310 362 310 c 0
 361 310 l 0
 360 310 l 0
 335 310 315 330 315 355 c 0
 315 380 335 400 360 400 c 0
 361 400 l 0x18
EndSplineSet
Refer: 24 65187 S 1 0 0 1 0 0 2
EndChar

StartChar: uni0628
Encoding: 1576 1576 26
Width: 666
VWidth: -468
Flags: W
HStem: -151 90<296.481 374.519> 0 90<159.396 526.002>
VStem: 52 90<136 252> 290 91<-144.519 -67.4806> 526 90<90 252>
LayerCount: 2
Fore
SplineSet
335 -61 m 0
 336 -61 l 0
 361 -61 381 -81 381 -106 c 0
 381 -131 361 -151 336 -151 c 0
 335 -151 l 0
 310 -151 290 -131 290 -106 c 0
 290 -81 310 -61 335 -61 c 0
EndSplineSet
Refer: 30 1646 S 1 0 0 1 0 0 2
Substitution2: "'fina' Terminal Forms in Arabic lookup 2-1" uniFE90
Substitution2: "'init' Initial Forms in Arabic lookup 0-1" uniFE91
Substitution2: "'medi' Medial Forms in Arabic lookup 1-1" uniFE92
EndChar

StartChar: uni062A
Encoding: 1578 1578 27
Width: 666
VWidth: -468
Flags: W
HStem: 0 90<159.396 526.002> 323 90<218.481 257 258 296.519 372.481 451.519>
VStem: 52 90<136 252> 366 92<329.481 406.519> 526 90<90 252>
LayerCount: 2
Fore
SplineSet
412 413 m 0
 413 413 l 0
 438 413 458 393 458 368 c 0
 458 343 438 323 413 323 c 0
 412 323 l 0
 411 323 l 0
 386 323 366 343 366 368 c 0
 366 393 386 413 411 413 c 0
 412 413 l 0
258 412 m 0
 258 413 l 0
 283 413 303 393 303 368 c 0
 303 343 283 322 258 322 c 0
 257 322 l 0
 232 322 212 343 212 368 c 0
 212 393 232 413 257 413 c 0
 258 412 l 0
EndSplineSet
Refer: 30 1646 S 1 0 0 1 0 0 2
Substitution2: "'fina' Terminal Forms in Arabic lookup 2-1" uniFE96
Substitution2: "'init' Initial Forms in Arabic lookup 0-1" uniFE97
Substitution2: "'medi' Medial Forms in Arabic lookup 1-1" uniFE98
EndChar

StartChar: uni062B
Encoding: 1579 1579 28
Width: 666
VWidth: -468
Flags: W
HStem: 0 90<159.396 526.002> 323 90<218.481 257 258 296.519 372.481 451.519> 403 90<293.481 372.519>
VStem: 52 90<136 252> 287 92<409.481 486.519> 366 92<329.481 406.519> 526 90<90 252>
LayerCount: 2
Fore
SplineSet
412 413 m 0xd6
 413 413 l 0
 438 413 458 393 458 368 c 0
 458 343 438 323 413 323 c 0
 412 323 l 0
 411 323 l 0
 386 323 366 343 366 368 c 0
 366 393 386 413 411 413 c 0
 412 413 l 0xd6
258 412 m 0
 258 413 l 0
 283 413 303 393 303 368 c 0
 303 343 283 322 258 322 c 0
 257 322 l 0
 232 322 212 343 212 368 c 0
 212 393 232 413 257 413 c 0
 258 412 l 0
333 493 m 0xba
 334 493 l 0
 359 493 379 473 379 448 c 0
 379 423 359 403 334 403 c 0
 333 403 l 0
 332 403 l 0
 307 403 287 423 287 448 c 0
 287 473 307 493 332 493 c 0
 333 493 l 0xba
EndSplineSet
Refer: 30 1646 S 1 0 0 1 0 0 2
Substitution2: "'fina' Terminal Forms in Arabic lookup 2-1" uniFE9A
Substitution2: "'init' Initial Forms in Arabic lookup 0-1" uniFE9B
Substitution2: "'medi' Medial Forms in Arabic lookup 1-1" uniFE9C
EndChar

StartChar: uni0629
Encoding: 1577 1577 29
Width: 422
VWidth: 654
Flags: W
HStem: -1 90<143.852 280.609> 388 90<134.09 212.128 288.662 365.556>
VStem: 127.609 91<394.481 471.519> 280.609 90<89 280> 281.609 91<395.481 472.519>
LayerCount: 2
Fore
SplineSet
327.609 479 m 0xe8
 352.609 479 372.609 459 372.609 434 c 0
 372.609 409 352.609 389 327.609 389 c 0
 326.609 389 l 0
 301.609 389 281.609 409 281.609 434 c 0
 281.609 459 301.609 479 326.609 479 c 0
 327.609 479 l 0xe8
172.609 478 m 0
 173.609 478 l 0
 198.609 478 218.609 458 218.609 433 c 0
 218.609 408 198.609 388 173.609 388 c 0
 172.609 388 l 0
 147.609 388 127.609 408 127.609 433 c 0
 127.609 458 147.609 478 172.609 478 c 0
EndSplineSet
Refer: 78 1607 N 1 0 0 1 0 0 2
Substitution2: "'fina' Terminal Forms in Arabic lookup 2-1" uniFE94
EndChar

StartChar: uni066E
Encoding: 1646 1646 30
Width: 666
VWidth: -468
Flags: W
HStem: 0 90<159.396 526.002>
VStem: 52 90<136 252> 526 90<90 252>
LayerCount: 2
Fore
SplineSet
140 254 m 1
 142 138 l 2
 142 137 l 0
 142 136 l 1
 142 138 147 123 160 111 c 0
 173 99 192 90 199 90 c 2
 524 90 l 2
 529 90 526 92 526 91 c 1
 526 253 l 1
 616 252 l 1
 616 91 l 2
 616 44 577 1 525 0 c 0
 197 0 l 2
 196 0 196 0 195 0 c 0
 156 2 125 20 99 44 c 0
 74 67 52 97 52 137 c 1
 50 252 l 1
 140 254 l 1
EndSplineSet
EndChar

StartChar: uniFEEB
Encoding: 65259 65259 31
Width: 524
VWidth: 0
Flags: W
HStem: 40 45<67 157 225 315> 231 11<160 200>
VStem: 67 90<40 143.766> 225 90<42 143.766> 383 91<85 171.25>
LayerCount: 2
Fore
SplineSet
157 321 m 1
 200 321 273 323 342 294 c 0
 411 265 474 195 474 83 c 0
 474 60 467 36 450 18 c 0
 433 1 409 -5 389 -5 c 1
 0 -5 l 1
 0 85 l 1
 383 85 l 1
 382 166 353 192 308 211 c 0
 263 230 200 231 157 231 c 1
 157 321 l 1
189 242 m 0
 218 242 248 234 273 214 c 0
 298 194 314 160 315 123 c 2
 315 122 l 1
 315 42 l 1
 225 42 l 1
 225 121 l 2
 225 135 222 139 216 144 c 0
 210 149 200 152 190 152 c 0
 180 152 170 149 165 144 c 0
 160 139 157 135 157 123 c 2
 157 122 l 1
 157 40 l 1
 67 40 l 1
 67 121 l 2
 67 122 l 0
 67 158 82 192 106 212 c 0
 130 233 160 242 189 242 c 0
EndSplineSet
EndChar

StartChar: uniFEEC
Encoding: 65260 65260 32
Width: 390
VWidth: 0
Flags: W
HStem: -159 90<170.6 228.545> 0 43<75 165 233 323> 48 42<75 165 233 323> 158 90<169.455 231.638>
VStem: 75 90<-60.7663 41 46 149.766> 233 90<-59.7663 43 48 156.016>
LayerCount: 2
Fore
SplineSet
390 90 m 5
 390 0 l 5
 1 -2 l 5
 0 88 l 5
 390 90 l 5
197 248 m 4
 226 248 256 240 281 220 c 4
 306 200 322 166 323 129 c 5
 323 128 l 5
 323 48 l 5
 233 48 l 5
 233 127 l 6
 233 141 229 145 223 150 c 4
 217 155 208 158 198 158 c 4
 188 158 178 155 173 150 c 4
 168 145 165 141 165 129 c 6
 165 128 l 5
 165 46 l 5
 75 46 l 5
 75 127 l 6
 75 128 l 4
 75 164 90 198 114 218 c 4
 138 239 168 248 197 248 c 4
233 43 m 5
 323 43 l 5
 323 -38 l 6
 323 -39 l 4
 323 -75 308 -108 284 -128 c 4
 260 -149 230 -159 201 -159 c 4
 172 -159 142 -150 117 -130 c 4
 92 -110 76 -77 75 -40 c 6
 75 -39 l 5
 75 -38 l 5
 75 41 l 5
 165 41 l 5
 165 -38 l 6
 165 -52 168 -56 174 -61 c 4
 180 -66 190 -69 200 -69 c 4
 210 -69 220 -65 225 -60 c 4
 230 -55 233 -51 233 -39 c 6
 233 43 l 5
EndSplineSet
EndChar

StartChar: uniFED2
Encoding: 65234 65234 33
Width: 835
VWidth: -480
Flags: W
HStem: -170 90<151.623 601.002> 0 90<467.981 601 691 835> 226 91<475.744 585.388> 393 90<370.481 448.519>
VStem: 53 90<-73.0656 82> 364 91<399.481 476.519> 601 90<-80 0 90 208.525>
LayerCount: 2
Fore
SplineSet
526 317 m 0
 545 317 564 315 583 309 c 0
 634 293 681 245 691 174 c 0
 691 172 692 169 692 167 c 2
 691 90 l 1
 835 90 l 1
 835 0 l 1
 691 0 l 1
 691 -79 l 2
 691 -126 652 -169 600 -170 c 0
 182 -170 l 2
 181 -170 181 -170 180 -170 c 0
 111 -167 52 -114 53 -45 c 1
 50 82 l 1
 140 83 l 1
 143 -44 l 2
 143 -45 l 0
 143 -46 l 0
 143 -54 162 -79 184 -80 c 2
 599 -80 l 2
 604 -80 601 -78 601 -79 c 1
 601 0 l 1
 566 0 536 -4 501 -1 c 0
 463 3 419 23 390 65 c 0
 390 66 389 66 389 67 c 0
 337 152 371 249 439 289 c 0
 440 290 442 291 443 292 c 0
 467 308 496 316 526 317 c 0
538 226 m 0
 519 227 500 222 490 215 c 0
 489 214 487 214 486 213 c 0
 465 202 439 158 465 115 c 1
 481 92 488 90 509 88 c 0
 528 86 560 90 601 90 c 1
 602 163 l 1
 596 203 578 216 556 223 c 0
 550 225 544 226 538 226 c 0
409 483 m 0
 410 483 l 0
 435 483 455 463 455 438 c 0
 455 413 435 393 410 393 c 0
 409 393 l 0
 384 393 364 413 364 438 c 0
 364 463 384 483 409 483 c 0
EndSplineSet
EndChar

StartChar: uniFC37
Encoding: 64567 64567 34
Width: 525
VWidth: -1730
Flags: W
HStem: 0 90<146 368>
VStem: 56 90<90.968 313 415 562>
LayerCount: 2
Fore
SplineSet
414 570 m 1
 444 485 l 1
 371 459 278 418 222 370 c 2
 220 368 l 1
 218 367 l 2
 216 366 l 0
 216 365 218 360 227 354 c 2
 230 352 l 1
 232 350 l 1
 450 136 l 1
 472 116 480 90 473 59 c 0
 469 43 459 27 443 16 c 0
 427 5 408 0 389 0 c 2
 147 0 l 2
 121 0 95 11 78 29 c 0
 61 47 56 70 56 92 c 1
 56 93 l 1
 50 562 l 1
 140 563 l 1
 142 415 l 1
 148 424 155 432 163 438 c 1
 236 501 337 542 414 570 c 1
143 313 m 1
 146 93 l 1
 146 92 l 1
 146 91 146 91 146 90 c 0
 147 90 l 1
 368 90 l 1
 171 284 l 2
 160 292 150 302 143 313 c 1
384 75 m 2
 386 72 l 2
 385 73 384 75 384 75 c 2
EndSplineSet
Ligature2: "'rlig' Required Ligatures in Arabic lookup 3-1" uniFEDB uniFE8E
EndChar

StartChar: uni0643
Encoding: 1603 1603 35
Width: 510
VWidth: 0
Flags: W
HStem: 0 90<98 370> 238 66<134 189> 332 66<248 298>
VStem: 98 10<0 90> 134 139<240.028 303.5> 165 133<333.25 395.972> 370 90<90 560>
LayerCount: 2
Fore
SplineSet
370 560 m 5xf2
 460 560 l 5
 460 89 l 6
 460 41 418 0 370 0 c 6
 98 0 l 5
 98 90 l 5
 370 90 l 6
 370 560 l 5xf2
50 90 m 5
 108 90 l 5
 108 0 l 5
 98 0 l 5
 50 90 l 5
298 398 m 5xf6
 298 333 l 5xf6
 248 332 l 5
 270 284 l 6
 272 280 273 275 273 271 c 4
 273 253 258 238 240 238 c 6
 134 238 l 5
 134 304 l 5xfa
 189 304 l 5
 168 352 l 6
 166 356 165 361 165 365 c 4
 165 383 180 398 198 398 c 6
 298 398 l 5xf6
EndSplineSet
Substitution2: "'medi' Medial Forms in Arabic lookup 1-1" uniFEDC
Substitution2: "'init' Initial Forms in Arabic lookup 0-1" uniFEDB
EndChar

StartChar: uni0644
Encoding: 1604 1604 36
Width: 503
VWidth: 0
Flags: W
HStem: -160 90<140 362>
VStem: 50 90<-70 90> 362 90<-70 557>
LayerCount: 2
Fore
SplineSet
363 557 m 5
 453 557 l 5
 452 -71 l 6
 452 -119 411 -160 363 -160 c 4
 140 -160 l 6
 92 -160 50 -118 50 -70 c 6
 50 90 l 5
 140 90 l 5
 140 -70 l 5
 362 -70 l 6
 363 557 l 5
EndSplineSet
Substitution2: "'fina' Terminal Forms in Arabic lookup 2-1" uniFEDE
Substitution2: "'init' Initial Forms in Arabic lookup 0-1" uniFEDF
Substitution2: "'medi' Medial Forms in Arabic lookup 1-1" uniFEE0
EndChar

StartChar: uni062F
Encoding: 1583 1583 37
Width: 413
VWidth: 0
Flags: W
HStem: 0 90<50 273>
VStem: 273 90<90 155.077>
LayerCount: 2
Fore
SplineSet
179 321 m 5
 260 283 308 237 334 193 c 4
 360 149 363 108 363 88 c 4
 363 63 354 38 335 21 c 4
 316 4 293 0 273 0 c 6
 50 0 l 5
 50 90 l 5
 273 90 l 6
 273 101 272 121 257 147 c 4
 241 173 210 207 141 239 c 5
 179 321 l 5
EndSplineSet
Substitution2: "'fina' Terminal Forms in Arabic lookup 2-1" uniFEAA
EndChar

StartChar: uni0649
Encoding: 1609 1609 38
Width: 552
VWidth: 0
Flags: W
HStem: -160 90<159.201 399.002> 77 91<395.411 502>
VStem: 50 90<-50.4022 162>
LayerCount: 2
Fore
SplineSet
402 168 m 5
 403 168 l 5
 502 167 l 5
 502 77 l 5
 404 78 l 6
 400 78 397 77 394 77 c 5
 404 65 417 49 432 33 c 4
 446 18 460 3 472 -13 c 4
 484 -29 496 -46 499 -73 c 4
 500 -86 497 -103 489 -116 c 4
 481 -129 468 -138 456 -144 c 4
 431 -156 404 -159 367 -160 c 6
 366 -160 l 5
 295 -159 228 -164 169 -150 c 4
 139 -143 110 -130 88 -105 c 4
 66 -80 53 -46 50 -8 c 6
 50 -6 l 5
 50 -5 l 5
 50 162 l 5
 140 162 l 5
 140 -2 l 5
 142 -25 148 -37 155 -44 c 4
 162 -52 171 -58 190 -62 c 4
 227 -71 291 -69 365 -70 c 4
 366 -70 l 4
 381 -70 391 -68 400 -67 c 5
 392 -56 379 -43 366 -29 c 4
 339 -1 308 23 294 68 c 4
 290 79 288 94 292 109 c 4
 296 124 307 138 319 146 c 4
 342 163 367 166 400 168 c 6
 402 168 l 5
EndSplineSet
Substitution2: "'fina' Terminal Forms in Arabic lookup 2-1" uniFEF0
EndChar

StartChar: uniFEF0
Encoding: 65264 65264 39
Width: 535
VWidth: 524
Flags: W
HStem: -160 90<179.988 359> 1 45<359 449> 1 90<320 359 449 535>
VStem: 50 90<-36.2075 159> 359 90<-70 46>
LayerCount: 2
Back
SplineSet
90 124.75 m 5
 90.75 2.5625 l 6
 91.6992 -21.7461 97.1406 -33.0547 103.625 -40.625 c 4
 110.172 -48.2695 120.547 -54.6035 139.375 -59.4375 c 4
 176.469 -68.9629 240.912 -67.4844 313.876 -68.5625 c 5
 359.864 -65.0312 366.656 -46.4434 367.312 -33.1875 c 4
 367.972 -19.8398 363.066 -3.79297 327.938 0 c 5
 337.562 89.4375 l 5
 410.276 81.5879 460.188 23.0254 457.188 -37.625 c 4
 454.188 -98.2734 398.804 -152.838 319.438 -158.5 c 6
 317.5 -158.625 l 5
 315.5 -158.562 l 6
 244.604 -157.439 177.16 -162.01 117 -146.562 c 4
 86.9199 -138.838 57.2109 -124.756 35.3125 -99.1875 c 4
 13.4141 -73.6191 2.12109 -38.9648 0.75 0.0625 c 6
 0.75 0.6875 l 5
 0.75 1.375 l 5
 0 124.25 l 5
 90 124.75 l 5
324.438 89.75 m 5
 532.438 89.75 l 5
 532.438 -0.25 l 5
 324.438 -0.25 l 5
 324.438 89.75 l 5
EndSplineSet
Fore
Refer: 97 65266 S 1 0 0 1 0 0 2
EndChar

StartChar: uniFEE3
Encoding: 65251 65251 40
Width: 447
VWidth: 0
Flags: W
HStem: 0 90<0 83 172 298.071> 242 90<199.141 263.821>
VStem: 83 89<90 236.515>
LayerCount: 2
Fore
SplineSet
216 332 m 0
 245 332 275 322 302 305 c 1
 302 306 l 2
 302 305 l 0
 334 284 359 253 377 215 c 0
 395 177 407 131 387 86 c 1
 387 85 l 0
 386 85 l 2
 365 37 319 12 279 5 c 0
 239 -2 200 1 171 0 c 1
 169 66 l 1
 158 29 122 0 82 0 c 2
 0 0 l 1
 0 90 l 1
 82 90 l 2
 83 90 l 2
 83 203 l 2
 83 204 83 207 83 208 c 0
 89 261 122 304 165 322 c 0
 181 329 198 332 216 332 c 0
210 242 m 0
 206 241 202 240 199 239 c 0
 186 234 176 223 173 199 c 1
 172 90 l 1
 206 91 239 90 262 94 c 0
 286 98 296 102 304 121 c 0
 305 123 l 0
 308 130 308 152 296 176 c 0
 284 200 263 224 253 230 c 0
 237 240 222 244 210 242 c 0
EndSplineSet
EndChar

StartChar: uniFECB
Encoding: 65227 65227 41
Width: 446
VWidth: 0
Flags: W
HStem: 0 90<0 113 211.227 396> 238 90<163.242 338.615>
LayerCount: 2
Fore
SplineSet
210 328 m 0
 256 330 310 322 368 304 c 1
 341 218 l 1
 290 234 246 240 215 238 c 0
 184 236 168 227 163 221 c 0
 158 215 155 209 164 184 c 0
 172 162 194 129 230 90 c 1
 396 90 l 1
 396 0 l 1
 0 0 l 1
 0 90 l 1
 113 90 l 1
 98 112 88 133 80 154 c 0
 64 198 67 246 95 279 c 0
 123 312 164 326 210 328 c 0
EndSplineSet
EndChar

StartChar: uniFC8E
Encoding: 64654 64654 42
Width: 700
VWidth: 0
Flags: W
HStem: -154 90<160.2 404.42> -14 90<610 700> 151 90<443.469 508.816> 312 90<370.481 449.519>
VStem: 51 90<-44.4022 169> 364 92<318.481 395.519> 519 91<76 146.756>
LayerCount: 2
Fore
SplineSet
502 241 m 0
 531 240 562 226 581 201 c 0
 602 173 609 135 609 90 c 1
 610 76 l 2
 700 76 l 1
 700 -14 l 1
 610 -14 l 2
 563 -14 521 26 520 73 c 1
 520 74 l 2
 519 87 l 2
 519 88 l 0
 519 89 l 0
 520 124 513 142 509 147 c 0
 505 152 506 152 496 151 c 0
 476 150 429 125 389 90 c 1
 391 87 392 84 395 80 c 0
 409 62 437 35 461 10 c 0
 473 -3 484 -15 494 -30 c 0
 504 -45 515 -68 506 -95 c 0
 497 -122 472 -137 450 -144 c 0
 428 -151 402 -153 368 -154 c 0
 367 -154 l 0
 366 -154 l 0
 295 -153 229 -158 170 -144 c 0
 140 -137 111 -124 89 -99 c 0
 67 -74 54 -40 51 -2 c 0
 51 -1 51 0 51 1 c 2
 50 169 l 1
 140 169 l 1
 141 4 l 2
 143 -20 148 -31 155 -38 c 0
 162 -46 172 -52 191 -56 c 0
 228 -65 292 -63 366 -64 c 0
 382 -64 395 -62 405 -61 c 1
 402 -58 399 -55 396 -52 c 0
 375 -30 347 -5 324 25 c 0
 313 40 302 56 298 78 c 0
 294 100 302 130 320 148 c 0
 320 149 l 0
 370 196 426 237 490 241 c 0
 494 241 498 241 502 241 c 0
410 402 m 0
 411 402 l 0
 436 402 456 382 456 357 c 0
 456 332 436 312 411 312 c 0
 410 312 l 0
 409 312 l 0
 384 312 364 332 364 357 c 0
 364 382 384 402 409 402 c 0
 410 402 l 0
EndSplineSet
Ligature2: "'rlig' Required Ligatures in Arabic lookup 3-1" uniFEE8 uniFEF0
EndChar

StartChar: braceright
Encoding: 125 125 43
Width: 341
VWidth: 0
Flags: W
HStem: -251 90<51 108.526> 155 90<234.475 290> 560 90<52 109.62>
VStem: 125 90<-144.573 118 119 146.384 260.425 544.619>
LayerCount: 2
Fore
SplineSet
51 650 m 1
 99 651 143 639 174 608 c 0
 205 577 215 533 215 484 c 2
 215 316 l 1
 215 315 l 2
 215 282 224 269 234 260 c 0
 244 251 262 245 290 245 c 0
 291 155 l 2
 290 155 l 0
 259 155 238 149 228 143 c 0
 218 137 215 136 215 117 c 0
 215 116 l 2
 216 -88 l 1
 216 -137 201 -181 170 -210 c 0
 139 -239 95 -252 50 -251 c 1
 51 -161 l 1
 82 -161 99 -154 109 -145 c 0
 119 -136 126 -120 126 -88 c 2
 125 117 l 1
 125 118 l 1
 126 119 l 1
 127 152 140 184 162 205 c 1
 138 233 125 271 125 315 c 2
 125 484 l 2
 125 521 118 537 110 545 c 0
 102 553 87 560 52 560 c 1
 51 650 l 1
EndSplineSet
EndChar

StartChar: braceleft
Encoding: 123 123 44
Width: 341
VWidth: 0
Flags: W
HStem: -250 90<232.474 290> 155 90<51 106.525> 560 90<231.38 289>
VStem: 125 90<-144.573 146.384 260.426 545.618>
CounterMasks: 1 e0
LayerCount: 2
Fore
SplineSet
290 650 m 0
 289 560 l 1
 254 560 239 554 231 546 c 0
 223 538 215 521 215 484 c 2
 215 316 l 1
 215 315 l 2
 215 271 202 233 178 205 c 1
 200 184 214 152 215 119 c 2
 215 118 l 1
 214 -88 l 2
 214 -120 222 -136 232 -145 c 0
 242 -154 259 -160 290 -160 c 1
 291 -250 l 1
 246 -251 202 -239 171 -210 c 0
 140 -181 124 -137 124 -88 c 2
 125 117 l 2
 125 136 123 137 113 143 c 0
 103 149 81 155 51 155 c 0
 50 155 l 2
 51 245 l 2
 79 245 97 251 107 260 c 0
 117 269 125 283 125 316 c 2
 125 484 l 2
 125 533 136 578 167 609 c 0
 198 640 242 651 290 650 c 0
EndSplineSet
EndChar

StartChar: parenleft
Encoding: 40 40 45
Width: 319
VWidth: 0
Flags: W
LayerCount: 2
Fore
SplineSet
189.25 671 m 1
 266.25 624 l 1
 95.25 346 93.25 70 269.25 -228 c 1
 191.25 -274 l 1
 2.25 46 4.25 369 189.25 671 c 1
EndSplineSet
EndChar

StartChar: parenright
Encoding: 41 41 46
Width: 319
VWidth: 0
Flags: W
LayerCount: 2
Fore
SplineSet
130 671 m 1
 315 369 317 46 128 -274 c 1
 50 -228 l 1
 226 70 224 346 53 624 c 1
 130 671 l 1
EndSplineSet
EndChar

StartChar: bracketleft
Encoding: 91 91 47
Width: 266
VWidth: 0
Flags: W
HStem: -253 90<140 214> 556 90<140 214>
VStem: 50 164<-253 -163 556 646> 50 90<-163 556>
LayerCount: 2
Fore
SplineSet
51 646 m 1xe0
 96 646 l 1
 214 646 l 1
 214 556 l 1xe0
 140 556 l 1
 140 -163 l 1xd0
 172 -163 206 -163 216 -163 c 1
 214 -253 l 1xe0
 211 -253 101 -253 97 -253 c 2
 50 -255 l 1xd0
 50 -208 l 1
 50 601 l 1
 51 646 l 1xe0
EndSplineSet
EndChar

StartChar: bracketright
Encoding: 93 93 48
Width: 266
VWidth: 0
Flags: W
HStem: -249 90<52 126> 559 90<53 126>
VStem: 52 164<-249 -159 559 649> 126 90<-159 558>
LayerCount: 2
Fore
SplineSet
216 650 m 1xd0
 216 604 l 1
 216 -204 l 1
 216 -249 l 1
 171 -249 l 1
 52 -249 l 1
 52 -159 l 1xe0
 126 -159 l 1
 126 558 l 1
 94 558 60 559 50 559 c 1
 53 649 l 1
 56 649 166 649 170 649 c 2
 216 650 l 1xd0
EndSplineSet
EndChar

StartChar: uniFEFB
Encoding: 65275 65275 49
Width: 388
VWidth: 1426
Flags: W
HStem: -2 90<50 130.452 166 247>
VStem: 176 161<174.056 244.94> 248 89<88 173 295 558>
LayerCount: 2
Back
SplineSet
-35.0625 560.062 m 1
 54.9375 560 l 1
 54.5 88.9375 l 2
 54.4629 41.2012 12.4531 0 -35.625 0 c 2
 -271.75 0 l 1
 -271.75 90 l 1
 -35.625 90 l 2
 -35.5566 90 -35.5645 90.002 -35.5 90 c 2
 -35.0625 560.062 l 1
-190 478.562 m 1
 -100 478.438 l 1
 -100.375 45 l 1
 -190.375 45.0625 l 1
 -190 478.562 l 1
335.312 558.624 m 1
 425.312 558.562 l 1
 424.938 87.5 l 2
 424.898 39.7656 382.888 -1.4375 334.812 -1.4375 c 2
 175.875 -1.4375 l 1
 175.875 88.5625 l 1
 334.812 88.5625 l 2
 334.878 88.5625 334.874 88.5645 334.938 88.5625 c 2
 335.312 558.624 l 1
180.438 557.062 m 1
 270.438 557 l 1
 270.062 131.562 l 1
 180.062 131.625 l 1
 180.438 557.062 l 1
EndSplineSet
Fore
SplineSet
248 558 m 1xa0
 338 558 l 1
 337 87 l 2xa0
 337 39 295 -2 247 -2 c 2
 50 -2 l 1
 50 88 l 1
 100 88 l 1
 118 98 134 111 147 126 c 0
 165 148 177 177 176 220 c 2
 176 221 l 1xc0
 76 563 l 1
 162 588 l 1
 248 295 l 1
 248 558 l 1xa0
247 173 m 1
 232 143 206 114 166 88 c 1
 247 88 l 2
 247 173 l 1
EndSplineSet
LCarets2: 1 0 
Ligature2: "'rlig' Required Ligatures in Arabic lookup 3-1" uniFEDF uniFE8E
EndChar

StartChar: uni064D
Encoding: 1613 1613 50
Width: 0
VWidth: 0
Flags: W
VStem: -134 267
LayerCount: 2
Back
SplineSet
165.375 924.312 m 1
 165.5 874.312 l 1
 -164.688 873.25 l 1
 -164.875 923.25 l 1
 165.375 924.312 l 1
165.375 796.312 m 1
 165.5 746.312 l 1
 -164.688 745.25 l 1
 -164.875 795.25 l 1
 165.375 796.312 l 1
EndSplineSet
Fore
SplineSet
98 905 m 1
 133 870 l 1
 -99 635 l 1
 -134 670 l 1
 98 905 l 1
99 1066 m 1
 134 1031 l 1
 -98 796 l 1
 -134 831 l 1
 99 1066 l 1
EndSplineSet
EndChar

StartChar: uni064F
Encoding: 1615 1615 51
Width: 0
VWidth: -698
Flags: W
LayerCount: 2
Back
SplineSet
-2.0625 957.562 m 0
 -2.04102 957.562 -2.02148 957.562 -2 957.562 c 0
 61.7383 960.226 112.881 906.752 113.062 846.688 c 2
 113.062 846.624 l 2
 113.062 786.992 62.1758 739.8 2.3125 739.5 c 2
 2.25 739.5 l 1
 2.1875 739.5 l 2
 -57.3145 739.5 -105.094 785.646 -109.938 843.25 c 0
 -115.059 904.152 -63.6406 954.968 -2.0625 957.562 c 0
0.0625 907.562 m 0
 -35.4785 906.086 -62.6465 877.426 -60.125 847.438 c 0
 -57.3262 814.15 -32.2207 789.56 2.0625 789.5 c 0
 2.10547 789.5 2.14453 789.5 2.1875 789.5 c 0
 36.0918 789.734 63.0254 815.704 63.0625 846.562 c 0
 63.0625 846.582 63.0625 846.606 63.0625 846.624 c 0
 62.9297 877.06 33.3984 908.974 0.0625 907.562 c 0
-4.9375 789.938 m 1
 -4.4375 739.938 l 1
 -272.438 737.312 l 1
 -272.938 787.312 l 1
 -4.9375 789.938 l 1
EndSplineSet
Fore
SplineSet
13.0615 1043 m 0
 42.0615 1044 72.0615 1033 94.0615 1013 c 1
 138.062 972 137.062 903 96.0615 859 c 1
 55.0615 816 -10.9385 812 -55.9385 848 c 0
 -103.938 886 -105.938 958 -65.9385 1005 c 0
 -44.9385 1029 -15.9385 1042 13.0615 1043 c 0
16.0615 992 m 0
 0.0615234 991 -16.9385 985 -27.9385 972 c 1
 -50.9385 945 -48.9385 906 -24.9385 887 c 1
 1.06152 866 37.0615 868 60.0615 893 c 0
 83.0615 918 83.0615 956 60.0615 977 c 0
 49.0615 987 32.0615 993 16.0615 992 c 0
54.0615 888 m 1
 91.0615 855 l 1
 -89.9385 657 l 1
 -126.938 691 l 1
 54.0615 888 l 1
EndSplineSet
EndChar

StartChar: uni0652
Encoding: 1618 1618 52
Width: 0
VWidth: 0
Flags: W
HStem: 733 50<-46.8022 48.0328> 901 50<-47.065 44.206>
VStem: 61.6699 50.0001<797.515 883.668>
LayerCount: 2
Fore
SplineSet
-3.33008 951 m 0
 60.6699 954 111.67 900 111.67 840 c 2
 111.67 780 60.6699 733 0.669922 733 c 2
 -59.3301 733 -106.331 779 -111.331 837 c 0
 -116.331 898 -65.3311 948 -3.33008 951 c 0
-1.33008 901 m 0
 -37.3301 900 -65.3311 871 -62.3311 841 c 0
 -59.3301 808 -33.3301 783 0.669922 783 c 0
 34.6699 783 61.6699 809 61.6699 840 c 0
 61.6699 870 31.6699 902 -1.33008 901 c 0
EndSplineSet
EndChar

StartChar: uni06D2
Encoding: 1746 1746 53
Width: 819
VWidth: 598
Flags: W
HStem: -234 90<160.98 769.619> 108 90<325.746 446.742>
LayerCount: 2
Fore
SplineSet
385.619 198 m 0
 434.619 196 475.619 176 502.619 159 c 1
 454.619 82 l 1
 436.619 93 406.619 107 381.619 108 c 0
 356.619 109 335.619 105 312.619 72 c 0
 309.619 68 306.619 49 288.619 23 c 0
 270.619 -3 236.619 -25 183.619 -39 c 0
 149.619 -48 137.619 -74 140.619 -94 c 0
 143.619 -114 161.619 -141 239.619 -144 c 1
 769.619 -144 l 1
 769.619 -234 l 1
 237.619 -234 l 2
 236.619 -234 l 0
 131.619 -231 62.6191 -175 51.6191 -107 c 0
 40.6191 -39 86.6191 29 160.619 48 c 0
 201.619 59 209.619 68 214.619 75 c 0
 219.619 82 221.619 98 239.619 123 c 0
 278.619 178 336.619 200 385.619 198 c 0
EndSplineSet
Substitution2: "'fina' Terminal Forms in Arabic lookup 2-1" uniFBAF
EndChar

StartChar: uniFBAF
Encoding: 64431 64431 54
Width: 609
VWidth: 598
Flags: W
HStem: -235 90<160.98 609.619> 0 90<511.948 544.619> 108 90<323.583 405.614>
LayerCount: 2
Fore
SplineSet
366.619 198 m 4
 415.619 198 463.619 170 488.619 123 c 4
 497.619 106 504.619 99 511.619 95 c 4
 518.619 91 526.619 89 544.619 90 c 5
 550.619 0 l 5
 520.619 -2 490.619 3 465.619 18 c 4
 440.619 33 422.619 56 408.619 82 c 4
 398.619 101 383.619 108 366.619 108 c 4
 349.619 108 330.619 100 314.619 74 c 4
 311.619 68 307.619 48 288.619 22 c 4
 269.619 -4 236.619 -25 183.619 -39 c 4
 149.619 -48 137.619 -74 140.619 -94 c 4
 143.619 -114 161.619 -142 239.619 -145 c 5
 609.619 -145 l 5
 609.619 -235 l 5
 237.619 -235 l 6
 236.619 -235 l 4
 131.619 -232 62.6191 -176 51.6191 -108 c 4
 40.6191 -40 86.6191 29 160.619 48 c 4
 201.619 59 211.619 68 216.619 75 c 4
 221.619 82 222.619 95 237.619 120 c 4
 267.619 170 317.619 198 366.619 198 c 4
EndSplineSet
EndChar

StartChar: uni0646
Encoding: 1606 1606 55
Width: 498
VWidth: 0
Flags: W
HStem: -160 90<177.831 358> 234 91<215.053 253 254 291.947>
VStem: 50 90<-36.9955 158> 358 90<-70 160>
LayerCount: 2
Fore
SplineSet
448 160 m 1
 448 -71 l 2
 448 -119 406 -160 358 -160 c 2
 258 -160 l 2
 210 -159 161 -146 121 -119 c 0
 81 -92 50 -46 50 10 c 0
 50 158 l 1
 140 158 l 1
 140 10 l 2
 140 -14 150 -30 172 -45 c 0
 194 -60 227 -70 259 -70 c 2
 358 -70 l 2
 358 160 l 1
 448 160 l 1
253 324 m 0
 254 325 l 0
 279 325 299 305 299 280 c 0
 299 255 279 234 254 234 c 0
 253 234 l 0
 228 234 208 255 208 280 c 0
 208 305 228 325 253 325 c 0
 253 324 l 0
EndSplineSet
Substitution2: "'fina' Terminal Forms in Arabic lookup 2-1" uniFEE6
Substitution2: "'medi' Medial Forms in Arabic lookup 1-1" uniFEE8
Substitution2: "'init' Initial Forms in Arabic lookup 0-1" uniFEE7
EndChar

StartChar: uni0637
Encoding: 1591 1591 56
Width: 586
VWidth: 0
Flags: W
HStem: 0 90<50 133.084 230 446> 233 90<337.606 430.268>
VStem: 125 90<84 560> 444 90<90 220.58>
LayerCount: 2
Fore
SplineSet
387 323 m 4
 404 323 423 320 440 314 c 4
 441 313 l 4
 470 301 496 278 511 249 c 4
 526 220 533 187 534 148 c 4
 534 147 l 6
 536 91 l 6
 538 41 494 0 446 0 c 6
 50 0 l 5
 50 90 l 5
 119 90 l 5
 162 149 204 212 253 258 c 4
 278 282 306 301 337 313 c 4
 353 319 369 323 387 323 c 4
388 233 m 4
 382 233 375 232 368 229 c 4
 353 223 335 211 315 192 c 4
 288 167 260 130 230 90 c 5
 446 90 l 6
 444 144 l 6
 444 145 l 4
 443 175 438 196 432 208 c 4
 426 220 419 225 407 230 c 4
 400 232 394 233 388 233 c 4
125 560 m 5
 215 560 l 5
 215 84 l 5
 125 84 l 5
 125 560 l 5
EndSplineSet
Substitution2: "'fina' Terminal Forms in Arabic lookup 2-1" uniFEC2
EndChar

StartChar: uniFEE6
Encoding: 65254 65254 57
Width: 625
VWidth: 0
Flags: W
HStem: 0 90<178.831 535> 394 91<306.053 344 345 382.947>
VStem: 51 90<123.005 318> 535 90<90 320>
LayerCount: 2
Fore
SplineSet
625 320 m 1
 625 89 l 2
 625 41 583 0 535 0 c 2
 259 0 l 2
 211 0 162 14 122 41 c 0
 82 68 51 114 51 170 c 0
 50 318 l 1
 140 318 l 1
 141 170 l 2
 141 146 151 130 173 115 c 0
 195 100 228 90 260 90 c 2
 535 90 l 2
 535 320 l 1
 625 320 l 1
344 484 m 0
 345 485 l 0
 370 485 390 465 390 440 c 0
 390 415 370 394 345 394 c 0
 344 394 l 0
 319 394 299 415 299 440 c 0
 299 465 319 485 344 485 c 0
 344 484 l 0
EndSplineSet
EndChar

StartChar: uniFE97
Encoding: 65175 65175 58
Width: 387
VWidth: 0
Flags: W
HStem: 0 90<0 245> 390 90<97.4806 175.519 252.053 329.947>
VStem: 91 91<396.481 473.519> 245 92<90 320 397.481 474.519>
LayerCount: 2
Fore
SplineSet
245 320 m 1
 335 320 l 1
 335 89 l 2
 335 41 293 0 245 0 c 2
 0 0 l 1
 0 90 l 1
 245 90 l 2
 245 320 l 1
291 481 m 0
 292 481 l 0
 317 481 337 461 337 436 c 0
 337 411 317 391 292 391 c 0
 291 391 l 0
 290 391 l 0
 265 391 245 411 245 436 c 0
 245 461 265 481 290 481 c 0
 291 481 l 0
136 480 m 0
 137 480 l 0
 162 480 182 460 182 435 c 0
 182 410 162 390 137 390 c 0
 136 390 l 0
 111 390 91 410 91 435 c 0
 91 460 111 480 136 480 c 0
EndSplineSet
EndChar

StartChar: uniFEB8
Encoding: 65208 65208 59
Width: 552
VWidth: 0
Flags: W
HStem: 0 90<0 151 241 306 396 462> 391 90<239.481 317.519 394.481 472.519> 471 90<315.481 393.519>
VStem: 233 91<397.481 474.519> 236 5<41 90> 309 91<477.481 554.519> 388 91<397.481 474.519> 392 4<41 90> 462 90<90 320>
LayerCount: 2
Fore
SplineSet
433 481 m 0xc2
 434 481 l 0
 459 481 479 461 479 436 c 0
 479 411 459 391 434 391 c 0
 433 391 l 0
 408 391 388 411 388 436 c 0
 388 461 408 481 433 481 c 0xc2
279 481 m 0
 304 481 324 461 324 436 c 0
 324 411 304 391 279 391 c 0
 278 391 l 0
 253 391 233 411 233 436 c 0xd0
 233 461 253 481 278 481 c 0
 279 481 l 0
354 561 m 0xa4
 355 561 l 0
 380 561 400 541 400 516 c 0
 400 491 380 471 355 471 c 0
 354 471 l 0
 329 471 309 491 309 516 c 0
 309 541 329 561 354 561 c 0xa4
EndSplineSet
Refer: 61 65203 S 1 0 0 1 0 0 2
EndChar

StartChar: uniFEDF
Encoding: 65247 65247 60
Width: 215
VWidth: 0
Flags: W
HStem: 0 90<0 74>
VStem: 74 90<90 560>
LayerCount: 2
Fore
SplineSet
75 560 m 5
 165 560 l 5
 164 89 l 6
 164 41 122 0 74 0 c 6
 0 0 l 5
 0 90 l 5
 74 90 l 6
 75 560 l 5
EndSplineSet
EndChar

StartChar: uniFEB3
Encoding: 65203 65203 61
Width: 602
VWidth: 0
Flags: W
HStem: 0 90<0 151 241 306 396 462>
VStem: 236 5<41 90> 392 4<41 90> 462 90<90 320>
LayerCount: 2
Fore
SplineSet
462 320 m 1
 552 320 l 1
 552 89 l 2
 552 41 510 0 462 0 c 2
 392 0 l 1
 392 90 l 1
 462 90 l 2
 462 320 l 1
306 320 m 1
 396 320 l 1
 396 89 l 2
 396 41 354 0 306 0 c 2
 236 0 l 1
 236 90 l 1
 306 90 l 2
 306 320 l 1
151 320 m 1
 241 320 l 1
 241 89 l 2
 241 41 199 0 151 0 c 2
 0 0 l 1
 0 90 l 1
 151 90 l 2
 151 320 l 1
EndSplineSet
EndChar

StartChar: uniFE9B
Encoding: 65179 65179 62
Width: 387
VWidth: 0
Flags: W
HStem: 0 90<0 245> 390 90<97.4806 175.519 252.053 329.947> 470 90<172.481 251.519>
VStem: 91 91<396.481 473.519> 166 92<476.481 553.519> 245 92<90 320 397.481 474.519>
LayerCount: 2
Fore
SplineSet
212 560 m 0xa8
 213 560 l 0
 238 560 258 540 258 515 c 0
 258 490 238 470 213 470 c 0
 212 470 l 0
 211 470 l 0
 186 470 166 490 166 515 c 0
 166 540 186 560 211 560 c 0
 212 560 l 0xa8
EndSplineSet
Refer: 58 65175 S 1 0 0 1 0 0 2
EndChar

StartChar: uniFE91
Encoding: 65169 65169 63
Width: 385
VWidth: 0
Flags: W
HStem: -248 90<162.481 201 203 241.519> 0 90<0 245>
VStem: 156 92<-241.519 -164.481> 245 90<90 320>
LayerCount: 2
Fore
SplineSet
245 320 m 1xd0
 335 320 l 1
 335 89 l 2
 335 41 293 0 245 0 c 2
 0 0 l 1
 0 90 l 1
 245 90 l 2
 245 320 l 1xd0
202 -248 m 0
 203 -248 l 0
 228 -248 248 -228 248 -203 c 0
 248 -178 228 -158 203 -158 c 0
 202 -158 l 0
 201 -158 l 0
 176 -158 156 -178 156 -203 c 0xe0
 156 -228 176 -248 201 -248 c 0
 202 -248 l 0
EndSplineSet
EndChar

StartChar: uniFEE7
Encoding: 65255 65255 64
Width: 385
VWidth: 0
Flags: W
HStem: 0 90<0 245> 470 90<172.481 251.519>
VStem: 166 92<476.481 553.519> 245 90<90 320>
LayerCount: 2
Fore
SplineSet
245 320 m 1xd0
 335 320 l 1
 335 89 l 2
 335 41 293 0 245 0 c 2
 0 0 l 1
 0 90 l 1
 245 90 l 2
 245 320 l 1xd0
212 560 m 0
 213 560 l 0
 238 560 258 540 258 515 c 0
 258 490 238 470 213 470 c 0
 212 470 l 0
 211 470 l 0
 186 470 166 490 166 515 c 0xe0
 166 540 186 560 211 560 c 0
 212 560 l 0
EndSplineSet
EndChar

StartChar: uniFEF3
Encoding: 65267 65267 65
Width: 385
VWidth: 0
Flags: W
HStem: -167 90<86.4806 165.519 242.053 318.947> 0 90<0 245>
VStem: 80 92<-160.519 -83.4806> 235 91<-159.519 -82.4806> 245 90<90 320>
LayerCount: 2
Fore
SplineSet
245 320 m 1xe8
 335 320 l 1
 335 89 l 2
 335 41 293 0 245 0 c 2
 0 0 l 1
 0 90 l 1
 245 90 l 2
 245 320 l 1xe8
281 -76 m 0
 306 -76 326 -96 326 -121 c 0
 326 -146 306 -166 281 -166 c 0
 280 -166 l 0
 255 -166 235 -146 235 -121 c 0xf0
 235 -96 255 -76 280 -76 c 0
 281 -76 l 0
126 -77 m 0
 127 -77 l 0
 152 -77 172 -97 172 -122 c 0
 172 -147 152 -167 127 -167 c 0
 126 -167 l 0
 125 -167 l 0
 100 -167 80 -147 80 -122 c 0
 80 -97 100 -77 125 -77 c 0
 126 -77 l 0
EndSplineSet
EndChar

StartChar: uniFEEE
Encoding: 65262 65262 66
Width: 374
VWidth: 0
Flags: W
HStem: -170 90<50 260.2> 0 90<159.658 284> 233 90<193.625 276.16>
VStem: 284 90<-55.3379 0 90 223.188>
LayerCount: 2
Fore
SplineSet
374 0 m 2
 374 -40 361 -82 331 -116 c 0
 301 -150 253 -172 195 -170 c 1
 50 -170 l 1
 50 -80 l 1
 195 -80 l 2
 196 -80 196 -80 197 -80 c 0
 233 -82 251 -71 264 -56 c 0
 277 -42 284 -20 284 0 c 1
 248 0 215 -3 180 2 c 0
 141 8 98 33 75 77 c 0
 74 79 l 0
 53 125 66 171 84 209 c 0
 102 247 126 279 158 300 c 0
 181 315 206 322 230 323 c 0
 302 326 371 273 374 200 c 1
 374 198 l 1
 374 0 l 2
235 233 m 0
 226 233 216 230 207 224 c 0
 197 218 177 194 165 170 c 0
 154 146 153 124 156 117 c 0
 167 95 172 94 193 91 c 0
 212 88 244 90 284 90 c 1
 284 196 l 2
 283 211 262 233 235 233 c 0
EndSplineSet
EndChar

StartChar: uni0631
Encoding: 1585 1585 68
Width: 349
VWidth: 0
Flags: W
HStem: -170 90<50 185.2>
VStem: 209 90<-55.2925 160>
LayerCount: 2
Fore
SplineSet
299 160 m 1
 299 1 l 2
 299 -39 286 -82 256 -116 c 0
 226 -150 178 -172 120 -170 c 1
 50 -170 l 1
 50 -80 l 1
 120 -80 l 1
 121 -80 l 1
 122 -80 l 2
 158 -82 176 -71 189 -56 c 0
 202 -41 209 -20 209 1 c 2
 209 160 l 1
 299 160 l 1
EndSplineSet
Substitution2: "'fina' Terminal Forms in Arabic lookup 2-1" uniFEAE
EndChar

StartChar: uni0648
Encoding: 1608 1608 69
Width: 424
VWidth: 0
Flags: W
HStem: -170 90<50 260.2> 0 90<159.658 284> 233 90<193.625 276.16>
VStem: 284 90<-55.3379 0 90 223.188>
LayerCount: 2
Fore
SplineSet
374 0 m 2
 374 -40 361 -82 331 -116 c 0
 301 -150 253 -172 195 -170 c 1
 50 -170 l 1
 50 -80 l 1
 195 -80 l 2
 196 -80 196 -80 197 -80 c 0
 233 -82 251 -71 264 -56 c 0
 277 -42 284 -20 284 0 c 1
 248 0 215 -3 180 2 c 0
 141 8 98 33 75 77 c 0
 74 79 l 0
 53 125 66 171 84 209 c 0
 102 247 126 279 158 300 c 0
 181 315 206 322 230 323 c 0
 302 326 371 273 374 200 c 1
 374 198 l 1
 374 0 l 2
235 233 m 0
 226 233 216 230 207 224 c 0
 197 218 177 194 165 170 c 0
 154 146 153 124 156 117 c 0
 167 95 172 94 193 91 c 0
 212 88 244 90 284 90 c 1
 284 196 l 2
 283 211 262 233 235 233 c 0
EndSplineSet
Substitution2: "'fina' Terminal Forms in Arabic lookup 2-1" uniFEEE
EndChar

StartChar: uni0632
Encoding: 1586 1586 70
Width: 351
VWidth: 0
Flags: W
HStem: -170 90<50 185.2> 231 90<216.481 294.519>
VStem: 209 90<-55.2925 160> 210 91<237.481 314.519>
LayerCount: 2
Fore
SplineSet
255 321 m 0xd0
 256 321 l 0
 281 321 301 301 301 276 c 0
 301 251 281 231 256 231 c 0
 255 231 l 0
 230 231 210 251 210 276 c 0
 210 301 230 321 255 321 c 0xd0
EndSplineSet
Refer: 68 1585 N 1 0 0 1 0 0 2
Substitution2: "'fina' Terminal Forms in Arabic lookup 2-1" uniFEB0
EndChar

StartChar: uni0626
Encoding: 1574 1574 77
Width: 552
VWidth: 0
Flags: W
HStem: -160 90<159.201 399.002> 77 91<395.411 502>
VStem: 50 90<-50.4022 162>
LayerCount: 2
Fore
SplineSet
402 168 m 5
 403 168 l 5
 502 167 l 5
 502 77 l 5
 404 78 l 6
 400 78 397 77 394 77 c 5
 404 65 417 49 432 33 c 4
 446 18 460 3 472 -13 c 4
 484 -29 496 -46 499 -73 c 4
 500 -86 497 -103 489 -116 c 4
 481 -129 468 -138 456 -144 c 4
 431 -156 404 -159 367 -160 c 6
 366 -160 l 5
 295 -159 228 -164 169 -150 c 4
 139 -143 110 -130 88 -105 c 4
 66 -80 53 -46 50 -8 c 6
 50 -6 l 5
 50 -5 l 5
 50 162 l 5
 140 162 l 5
 140 -2 l 5
 142 -25 148 -37 155 -44 c 4
 162 -52 171 -58 190 -62 c 4
 227 -71 291 -69 365 -70 c 4
 366 -70 l 4
 381 -70 391 -68 400 -67 c 5
 392 -56 379 -43 366 -29 c 4
 339 -1 308 23 294 68 c 4
 290 79 288 94 292 109 c 4
 296 124 307 138 319 146 c 4
 342 163 367 166 400 168 c 6
 402 168 l 5
EndSplineSet
Substitution2: "'fina' Terminal Forms in Arabic lookup 2-1" uniFE8A
EndChar

StartChar: uni0647
Encoding: 1607 1607 78
Width: 421
VWidth: 654
Flags: W
HStem: -1 90<143.852 280.609>
VStem: 280.609 90<89 280>
LayerCount: 2
Fore
SplineSet
212.609 349 m 1
 297.609 318 l 1
 296.609 315 294.609 311 293.609 308 c 1
 371.609 308 l 1
 370.609 88 l 2
 370.609 63 360.609 39 343.609 23 c 0
 327.609 8 303.609 -1 280.609 -1 c 2
 163.609 -1 l 2
 162.609 -1 159.609 -1 158.609 -1 c 0
 104.609 5 66.6094 42 55.6094 79 c 0
 45.6094 115 48.6094 145 67.6094 172 c 0
 67.6094 173 68.6094 173 68.6094 174 c 0
 68.6094 175 69.6094 174 69.6094 175 c 2
 70.6094 175 l 1
 93.6094 210 122.609 224 144.609 243 c 0
 167.609 262 189.609 287 212.609 349 c 1
281.609 280 m 1
 257.609 229 228.609 196 202.609 174 c 0
 170.609 147 151.609 137 144.609 125 c 0
 143.609 124 143.609 123 142.609 122 c 1
 147.609 128 140.609 111 142.609 104 c 0
 144.609 97 142.609 92 166.609 89 c 1
 280.609 89 l 2
 281.609 280 l 1
EndSplineSet
Substitution2: "'fina' Terminal Forms in Arabic lookup 2-1" uniFEEA
Substitution2: "'medi' Medial Forms in Arabic lookup 1-1" uniFEEC
Substitution2: "'init' Initial Forms in Arabic lookup 0-1" uniFEEB
EndChar

StartChar: uni064A
Encoding: 1610 1610 79
Width: 552
VWidth: 0
Flags: W
HStem: -160 90<159.201 399.002> 77 91<395.411 502>
VStem: 50 90<-50.4022 162>
LayerCount: 2
Fore
SplineSet
402 168 m 5
 403 168 l 5
 502 167 l 5
 502 77 l 5
 404 78 l 6
 400 78 397 77 394 77 c 5
 404 65 417 49 432 33 c 4
 446 18 460 3 472 -13 c 4
 484 -29 496 -46 499 -73 c 4
 500 -86 497 -103 489 -116 c 4
 481 -129 468 -138 456 -144 c 4
 431 -156 404 -159 367 -160 c 6
 366 -160 l 5
 295 -159 228 -164 169 -150 c 4
 139 -143 110 -130 88 -105 c 4
 66 -80 53 -46 50 -8 c 6
 50 -6 l 5
 50 -5 l 5
 50 162 l 5
 140 162 l 5
 140 -2 l 5
 142 -25 148 -37 155 -44 c 4
 162 -52 171 -58 190 -62 c 4
 227 -71 291 -69 365 -70 c 4
 366 -70 l 4
 381 -70 391 -68 400 -67 c 5
 392 -56 379 -43 366 -29 c 4
 339 -1 308 23 294 68 c 4
 290 79 288 94 292 109 c 4
 296 124 307 138 319 146 c 4
 342 163 367 166 400 168 c 6
 402 168 l 5
EndSplineSet
Substitution2: "'fina' Terminal Forms in Arabic lookup 2-1" uniFEF2
Substitution2: "'medi' Medial Forms in Arabic lookup 1-1" uniFEF4
Substitution2: "'init' Initial Forms in Arabic lookup 0-1" uniFEF3
EndChar

StartChar: uni0641
Encoding: 1601 1601 80
Width: 741
VWidth: -480
Flags: W
HStem: -170 90<150.623 601.002> -1 91<466.981 601> 226 91<474.744 584.388> 393 90<369.481 447.519>
VStem: 52 90<-73.0656 82> 363 91<399.481 476.519> 601 90<-80 0 90 208.525>
LayerCount: 2
Fore
SplineSet
691 0 m 1
 691 -79 l 2
 691 -126 651 -169 599 -170 c 0
 181 -170 l 2
 180 -170 180 -170 179 -170 c 0
 110 -167 51 -114 52 -45 c 1
 50 82 l 1
 140 83 l 1
 142 -44 l 2
 142 -45 l 0
 142 -46 l 0
 142 -54 161 -79 183 -80 c 2
 599 -80 l 2
 604 -80 601 -78 601 -79 c 1
 601 0 l 1
 566 0 535 -4 500 -1 c 0
 462 3 418 23 389 65 c 0
 389 66 388 66 388 67 c 0
 336 152 370 249 438 289 c 0
 439 290 441 291 442 292 c 0
 466 308 495 316 525 317 c 0
 544 317 563 315 582 309 c 0
 633 293 680 245 690 174 c 0
 690 172 691 169 691 167 c 2
 691 90 l 1
 691 0 l 1
537 226 m 0
 518 227 499 222 489 215 c 0
 488 214 486 214 485 213 c 0
 464 202 438 158 464 115 c 1
 480 92 487 90 508 88 c 0
 527 86 560 90 601 90 c 1
 601 163 l 1
 595 203 577 216 555 223 c 0
 549 225 543 226 537 226 c 0
409 483 m 0
 434 483 454 463 454 438 c 0
 454 413 434 393 409 393 c 0
 408 393 l 0
 383 393 363 413 363 438 c 0
 363 463 383 483 408 483 c 0
 409 483 l 0
EndSplineSet
Substitution2: "'fina' Terminal Forms in Arabic lookup 2-1" uniFED2
EndChar

StartChar: uni0642
Encoding: 1602 1602 81
Width: 674
VWidth: 0
Flags: W
HStem: -170 90<150.623 534.002> -1 91<399.981 534> 226 91<407.744 517.388> 389 90<295.481 373.519 456.053 532.947>
VStem: 52 90<-73.0656 155> 289 91<395.481 472.519> 449 91<394.481 471.519> 534 90<-80 0 90 208.525>
LayerCount: 2
Fore
SplineSet
624 0 m 1xfd
 624 -79 l 2
 624 -126 585 -169 533 -170 c 0
 532 -170 l 0
 181 -170 l 2
 180 -170 180 -170 179 -170 c 0
 110 -167 51 -114 52 -45 c 1
 52 -43 l 1
 50 155 l 1
 140 156 l 1
 142 -44 l 2
 142 -45 l 0
 142 -46 l 0
 142 -54 161 -79 183 -80 c 2
 532 -80 l 2
 537 -80 534 -78 534 -79 c 1
 534 0 l 1
 499 0 468 -4 433 -1 c 0
 395 3 351 23 322 65 c 0
 322 66 321 66 321 67 c 0
 269 152 303 249 371 289 c 0
 372 290 374 291 375 292 c 0
 399 308 428 316 458 317 c 0
 477 317 496 315 515 309 c 0
 566 293 613 245 623 174 c 0
 623 172 624 169 624 167 c 2
 624 90 l 1
 624 0 l 1xfd
470 226 m 0
 451 227 432 222 422 215 c 0
 421 214 419 214 418 213 c 0
 397 202 371 158 397 115 c 1
 413 92 420 90 441 88 c 0
 460 86 493 90 534 90 c 1
 534 163 l 1
 528 203 510 216 488 223 c 0
 482 225 476 226 470 226 c 0
335 479 m 0
 360 479 380 459 380 434 c 0
 380 409 360 389 335 389 c 0
 334 389 l 0
 309 389 289 409 289 434 c 0
 289 459 309 479 334 479 c 0
 335 479 l 0
494 478 m 0
 495 478 l 0
 520 478 540 458 540 433 c 0
 540 408 520 388 495 388 c 0
 494 388 l 0
 469 388 449 408 449 433 c 0xfe
 449 458 469 478 494 478 c 0
EndSplineSet
Substitution2: "'fina' Terminal Forms in Arabic lookup 2-1" uniFED6
EndChar

StartChar: uni0645
Encoding: 1605 1605 82
Width: 586
VWidth: 0
Flags: W
HStem: 0 90<107.702 222 312 439.078> 242 90<339.141 403.821>
VStem: 139 1<0 90> 223 89<90 236.515>
LayerCount: 2
Fore
SplineSet
50 90 m 1
 140 90 l 1
 140 0 l 1
 92 0 50 42 50 90 c 1
356 332 m 0
 385 332 415 322 442 305 c 1
 442 306 l 2
 442 305 l 0
 474 284 498 253 516 215 c 0
 534 177 546 131 526 86 c 1
 527 86 l 2
 526 85 l 0
 505 37 458 12 418 5 c 0
 378 -2 339 1 310 0 c 1
 308 66 l 1
 297 29 262 0 222 0 c 2
 139 0 l 1
 139 90 l 1
 222 90 l 2
 223 203 l 2
 223 204 223 207 223 208 c 0
 229 261 262 304 305 322 c 0
 321 329 338 332 356 332 c 0
350 242 m 0
 346 241 342 240 339 239 c 0
 326 234 316 223 313 199 c 1
 312 90 l 1
 346 91 379 90 402 94 c 0
 426 98 436 102 444 121 c 0
 444 123 l 0
 447 130 447 152 435 176 c 0
 423 200 403 224 393 230 c 0
 377 240 362 244 350 242 c 0
EndSplineSet
Substitution2: "'medi' Medial Forms in Arabic lookup 1-1" uniFEE4
Substitution2: "'init' Initial Forms in Arabic lookup 0-1" uniFEE3
EndChar

StartChar: uniFEA0
Encoding: 65184 65184 87
Width: 477
VWidth: 0
Flags: W
HStem: -163 90<239.481 317.519> 0 90<0 312> 0 123<386.859 458.045> 245 87<99.2299 148.6>
VStem: 233 91<-156.519 -79.4806>
LayerCount: 2
Fore
SplineSet
279 -73 m 0x98
 304 -73 324 -93 324 -118 c 0
 324 -143 304 -163 279 -163 c 0
 278 -163 l 0
 253 -163 233 -143 233 -118 c 0
 233 -93 253 -73 278 -73 c 0
 279 -73 l 0x98
EndSplineSet
Refer: 24 65187 S 1 0 0 1 0 0 2
EndChar

StartChar: uniFEA8
Encoding: 65192 65192 89
Width: 477
VWidth: 0
Flags: W
HStem: 0 90<0 312> 0 123<386.859 458.045> 245 87<99.2299 148.6> 310 90<321.481 400.519>
VStem: 315 92<316.481 393.519>
LayerCount: 2
Fore
SplineSet
361 400 m 0x18
 362 400 l 0
 387 400 407 380 407 355 c 0
 407 330 387 310 362 310 c 0
 361 310 l 0
 360 310 l 0
 335 310 315 330 315 355 c 0
 315 380 335 400 360 400 c 0
 361 400 l 0x18
EndSplineSet
Refer: 24 65187 S 1 0 0 1 0 0 2
EndChar

StartChar: uniFEB0
Encoding: 65200 65200 90
Width: 300
VWidth: 0
Flags: W
HStem: -170 90<50 185.2> 231 90<215.481 293.519>
VStem: 209 90<-55.2925 160> 209 91<237.481 314.519>
LayerCount: 2
Fore
SplineSet
255 321 m 0xd0
 280 321 300 301 300 276 c 0
 300 251 280 231 255 231 c 0
 254 231 l 0
 229 231 209 251 209 276 c 0
 209 301 229 321 254 321 c 0
 255 321 l 0xd0
EndSplineSet
Refer: 68 1585 S 1 0 0 1 0 0 2
EndChar

StartChar: uniFEB7
Encoding: 65207 65207 92
Width: 602
VWidth: 0
Flags: W
HStem: 0 90<0 151 241 306 396 462> 391 90<239.481 317.519 394.481 472.519> 471 90<315.481 393.519>
VStem: 233 91<397.481 474.519> 236 5<41 90> 309 91<477.481 554.519> 388 91<397.481 474.519> 392 4<41 90> 462 90<90 320>
LayerCount: 2
Fore
SplineSet
433 481 m 0xc2
 434 481 l 0
 459 481 479 461 479 436 c 0
 479 411 459 391 434 391 c 0
 433 391 l 0
 408 391 388 411 388 436 c 0
 388 461 408 481 433 481 c 0xc2
279 481 m 0
 304 481 324 461 324 436 c 0
 324 411 304 391 279 391 c 0
 278 391 l 0
 253 391 233 411 233 436 c 0xd0
 233 461 253 481 278 481 c 0
 279 481 l 0
354 561 m 0xa4
 355 561 l 0
 380 561 400 541 400 516 c 0
 400 491 380 471 355 471 c 0
 354 471 l 0
 329 471 309 491 309 516 c 0
 309 541 329 561 354 561 c 0xa4
EndSplineSet
Refer: 61 65203 S 1 0 0 1 0 0 2
EndChar

StartChar: uniFEC0
Encoding: 65216 65216 94
Width: 550
VWidth: 0
Flags: W
HStem: 0 90<0 73 133 147.084 244 460> 84 6<73 133> 233 90<351.607 444.28> 310 92<157.347 234.653>
VStem: 73 90<84 236> 150 92<317.347 394.653> 458 90<90 220.58>
LayerCount: 2
Fore
SplineSet
196 402 m 4x16
 221 402 242 381 242 356 c 4
 242 331 221 310 196 310 c 4
 171 310 150 331 150 356 c 4
 150 381 171 402 196 402 c 4x16
EndSplineSet
Refer: 19 65211 S 1 0 0 1 0 0 2
EndChar

StartChar: uniFEF2
Encoding: 65266 65266 97
Width: 535
VWidth: 524
Flags: W
HStem: -160 90<179.988 359> 1 90<320 359 449 535> 1 45<359 449>
VStem: 50 90<-36.2075 159> 359 90<-70 46>
LayerCount: 2
Fore
SplineSet
140 159 m 1xb8
 140 11 l 2
 140 10 l 0
 140 -14 150 -29 172 -44 c 0
 194 -59 227 -70 259 -70 c 2
 358 -70 l 2
 359 -70 l 2
 359 46 l 1
 449 46 l 1
 449 -71 l 2
 449 -119 406 -160 358 -160 c 2
 259 -160 l 2
 258 -160 l 0
 210 -159 161 -146 121 -119 c 0
 81 -92 50 -45 50 11 c 0
 50 159 l 1
 140 159 l 1xb8
320 91 m 1xd8
 535 91 l 1
 535 1 l 1
 320 1 l 1
 320 91 l 1xd8
EndSplineSet
EndChar

StartChar: uni064E
Encoding: 1614 1614 108
Width: 0
VWidth: -80
Flags: W
HStem: 555 270
VStem: -134 268
LayerCount: 2
Fore
SplineSet
98 825 m 1
 134 789 l 1
 -98 555 l 1
 -134 590 l 1
 98 825 l 1
EndSplineSet
EndChar

StartChar: uni0650
Encoding: 1616 1616 109
Width: 0
VWidth: -880
Flags: W
HStem: -1045 270
VStem: -134 268
LayerCount: 2
Fore
SplineSet
98 -775 m 5
 134 -811 l 5
 -98 -1045 l 5
 -134 -1010 l 5
 98 -775 l 5
EndSplineSet
EndChar

StartChar: uniFEBE
Encoding: 65214 65214 115
Width: 843
VWidth: 0
Flags: W
HStem: -162 90<143 366> 0 90<411 425 537 752> 233 90<644.483 736.28> 309 90<449.481 527.519>
VStem: 53 90<-69.9715 168> 411 45<0 90> 443 91<315.481 392.519> 750 90<90 220.58>
LayerCount: 2
Fore
SplineSet
489 399 m 0xdb
 514 399 534 379 534 354 c 0
 534 329 514 309 489 309 c 0
 488 309 l 0
 463 309 443 329 443 354 c 0
 443 379 463 399 488 399 c 0
 489 399 l 0xdb
EndSplineSet
Refer: 12 1589 S 1 0 0 1 0 0 2
EndChar

StartChar: uniFECD
Encoding: 65229 65229 119
Width: 377
VWidth: 0
Flags: W
HStem: -232 90<140 376> 0 90<266 376> 315 90<137.481 215.519>
VStem: 50 90<-142 0> 131 91<321.481 398.519>
LayerCount: 2
Fore
SplineSet
177 405 m 4xe8
 202 405 222 385 222 360 c 4
 222 335 202 315 177 315 c 4
 176 315 l 4
 151 315 131 335 131 360 c 4
 131 385 151 405 176 405 c 4
 177 405 l 4xe8
EndSplineSet
Refer: 17 1593 S 1 0 0 1 0 0 2
EndChar

StartChar: uniFE94
Encoding: 65172 65172 123
Width: 371
VWidth: 654
Flags: W
HStem: -1 90<143.852 280.609> 388 90<134.09 212.128 288.662 365.556>
VStem: 127.609 91<394.481 471.519> 280.609 90<89 280> 281.609 91<395.481 472.519>
LayerCount: 2
Fore
SplineSet
327.609 479 m 0xe8
 352.609 479 372.609 459 372.609 434 c 0
 372.609 409 352.609 389 327.609 389 c 0
 326.609 389 l 0
 301.609 389 281.609 409 281.609 434 c 0
 281.609 459 301.609 479 326.609 479 c 0
 327.609 479 l 0xe8
172.609 478 m 0
 173.609 478 l 0
 198.609 478 218.609 458 218.609 433 c 0
 218.609 408 198.609 388 173.609 388 c 0
 172.609 388 l 0
 147.609 388 127.609 408 127.609 433 c 0
 127.609 458 147.609 478 172.609 478 c 0
EndSplineSet
Refer: 78 1607 N 1 0 0 1 0 0 2
EndChar

StartChar: uniFEDE
Encoding: 65246 65246 130
Width: 453
VWidth: 0
Flags: W
HStem: -160 90<140 362>
VStem: 50 90<-70 90> 362 90<-70 557>
LayerCount: 2
Fore
SplineSet
363 557 m 5
 453 557 l 5
 452 -71 l 6
 452 -119 411 -160 363 -160 c 4
 140 -160 l 6
 92 -160 50 -118 50 -70 c 6
 50 90 l 5
 140 90 l 5
 140 -70 l 5
 362 -70 l 6
 363 557 l 5
EndSplineSet
EndChar

